<svg preserveAspectRatio="none" width="100%" height="100%" overflow="visible" style="display: block;" viewBox="0 0 5.83333 8.75" fill="none" xmlns="http://www.w3.org/2000/svg">
<g id="Vector" filter="url(#filter0_i_0_6)">
<mask id="path-1-inside-1_0_6" fill="white">
<path d="M0 0H0.972222V8.75H0V0ZM4.86111 0H5.83333V8.75H4.86111V0Z"/>
</mask>
<path d="M0 0V-1H-1V0H0ZM0.972222 0H1.97222V-1H0.972222V0ZM0.972222 8.75V9.75H1.97222V8.75H0.972222ZM0 8.75H-1V9.75H0V8.75ZM4.86111 0V-1H3.86111V0H4.86111ZM5.83333 0H6.83333V-1H5.83333V0ZM5.83333 8.75V9.75H6.83333V8.75H5.83333ZM4.86111 8.75H3.86111V9.75H4.86111V8.75ZM0 0V1H0.972222V0V-1H0V0ZM0.972222 0H-0.0277777V8.75H0.972222H1.97222V0H0.972222ZM0.972222 8.75V7.75H0V8.75V9.75H0.972222V8.75ZM0 8.75H1V0H0H-1V8.75H0ZM4.86111 0V1H5.83333V0V-1H4.86111V0ZM5.83333 0H4.83333V8.75H5.83333H6.83333V0H5.83333ZM5.83333 8.75V7.75H4.86111V8.75V9.75H5.83333V8.75ZM4.86111 8.75H5.86111V0H4.86111H3.86111V8.75H4.86111Z" fill="var(--stroke-0, white)" mask="url(#path-1-inside-1_0_6)"/>
</g>
<defs>
<filter id="filter0_i_0_6" x="0" y="0" width="5.83333" height="9.25" filterUnits="userSpaceOnUse" color-interpolation-filters="sRGB">
<feFlood flood-opacity="0" result="BackgroundImageFix"/>
<feBlend mode="normal" in="SourceGraphic" in2="BackgroundImageFix" result="shape"/>
<feColorMatrix in="SourceAlpha" type="matrix" values="0 0 0 0 0 0 0 0 0 0 0 0 0 0 0 0 0 0 127 0" result="hardAlpha"/>
<feOffset dy="0.5"/>
<feGaussianBlur stdDeviation="0.5"/>
<feComposite in2="hardAlpha" operator="arithmetic" k2="-1" k3="1"/>
<feColorMatrix type="matrix" values="0 0 0 0 0.0901961 0 0 0 0 0.0901961 0 0 0 0 0.0901961 0 0 0 1 0"/>
<feBlend mode="normal" in2="shape" result="effect1_innerShadow_0_6"/>
</filter>
</defs>
</svg>
