<svg preserveAspectRatio="none" width="100%" height="100%" overflow="visible" style="display: block;" viewBox="0 0 236.445 26.6028" fill="none" xmlns="http://www.w3.org/2000/svg">
<g id="Waveform">
<g id="Vector">
</g>
<path id="Vector_2" d="M0 13.1552C0 12.9534 0.163613 12.7898 0.365439 12.7898C0.567266 12.7898 0.730878 12.9534 0.730878 13.1552V13.4475C0.730878 13.6494 0.567266 13.813 0.365439 13.813C0.163613 13.813 0 13.6494 0 13.4475V13.1552Z" fill="var(--fill-0, #171717)"/>
<path id="Vector_3" d="M1.82932 13.1552C1.82932 12.9534 1.99293 12.7898 2.19476 12.7898C2.39659 12.7898 2.5602 12.9534 2.5602 13.1552V13.4475C2.5602 13.6494 2.39659 13.813 2.19476 13.813C1.99293 13.813 1.82932 13.6494 1.82932 13.4475V13.1552Z" fill="var(--fill-0, #171717)"/>
<path id="Vector_4" d="M3.65148 11.8545C3.65148 11.6526 3.81509 11.489 4.01692 11.489C4.21875 11.489 4.38236 11.6526 4.38236 11.8545V14.7481C4.38236 14.9499 4.21875 15.1135 4.01692 15.1135C3.81509 15.1135 3.65148 14.9499 3.65148 14.7481V11.8545Z" fill="var(--fill-0, #171717)"/>
<path id="Vector_5" d="M5.48438 6.35665C5.48438 6.15482 5.64799 5.99121 5.84982 5.99121C6.05165 5.99121 6.21526 6.15482 6.21526 6.35665V20.2462C6.21526 20.448 6.05165 20.6116 5.84982 20.6116C5.64799 20.6116 5.48438 20.448 5.48438 20.2462V6.35665Z" fill="var(--fill-0, #171717)"/>
<path id="Vector_6" d="M7.31012 13.0537C7.31012 12.8518 7.47373 12.6882 7.67556 12.6882C7.87739 12.6882 8.041 12.8518 8.041 13.0537V13.549C8.041 13.7508 7.87739 13.9144 7.67556 13.9144C7.47373 13.9144 7.31012 13.7508 7.31012 13.549V13.0537Z" fill="var(--fill-0, #171717)"/>
<path id="Vector_7" d="M9.13586 9.78731C9.13586 9.58549 9.29947 9.42188 9.5013 9.42188C9.70313 9.42188 9.86674 9.58549 9.86674 9.78731V16.8153C9.86674 17.0171 9.70313 17.1807 9.5013 17.1807C9.29947 17.1807 9.13586 17.0171 9.13586 16.8153V9.78731Z" fill="var(--fill-0, #171717)"/>
<path id="Vector_8" d="M10.9652 9.13912C10.9652 8.93729 11.1288 8.77368 11.3306 8.77368C11.5324 8.77368 11.6961 8.93729 11.6961 9.13912V17.4636C11.6961 17.6654 11.5324 17.829 11.3306 17.829C11.1288 17.829 10.9652 17.6654 10.9652 17.4636V9.13912Z" fill="var(--fill-0, #171717)"/>
<path id="Vector_9" d="M12.7909 13.1118C12.7909 12.91 12.9545 12.7463 13.1564 12.7463C13.3582 12.7463 13.5218 12.91 13.5218 13.1118V13.4908C13.5218 13.6927 13.3582 13.8563 13.1564 13.8563C12.9545 13.8563 12.7909 13.6927 12.7909 13.4908V13.1118Z" fill="var(--fill-0, #171717)"/>
<path id="Vector_10" d="M14.6167 6.98019C14.6167 6.77836 14.7803 6.61475 14.9821 6.61475C15.1839 6.61475 15.3475 6.77836 15.3475 6.98019V19.6225C15.3475 19.8243 15.1839 19.9879 14.9821 19.9879C14.7803 19.9879 14.6167 19.8243 14.6167 19.6225V6.98019Z" fill="var(--fill-0, #171717)"/>
<path id="Vector_11" d="M16.4424 11.1254C16.4424 10.9236 16.606 10.76 16.8078 10.76C17.0097 10.76 17.1733 10.9236 17.1733 11.1254V15.477C17.1733 15.6789 17.0097 15.8425 16.8078 15.8425C16.606 15.8425 16.4424 15.6789 16.4424 15.477V11.1254Z" fill="var(--fill-0, #171717)"/>
<path id="Vector_12" d="M18.2753 13.1184C18.2753 12.9165 18.4389 12.7529 18.6407 12.7529C18.8426 12.7529 19.0062 12.9165 19.0062 13.1184V13.4841C19.0062 13.6859 18.8426 13.8495 18.6407 13.8495C18.4389 13.8495 18.2753 13.6859 18.2753 13.4841V13.1184Z" fill="var(--fill-0, #171717)"/>
<path id="Vector_13" d="M20.101 6.96187C20.101 6.76005 20.2647 6.59644 20.4665 6.59644C20.6683 6.59644 20.8319 6.76005 20.8319 6.96187V19.6408C20.8319 19.8426 20.6683 20.0062 20.4665 20.0062C20.2647 20.0062 20.101 19.8426 20.101 19.6408V6.96187Z" fill="var(--fill-0, #171717)"/>
<path id="Vector_14" d="M21.9268 10.3513C21.9268 10.1495 22.0904 9.98584 22.2922 9.98584C22.494 9.98584 22.6577 10.1495 22.6577 10.3513V16.251C22.6577 16.4528 22.494 16.6164 22.2922 16.6164C22.0904 16.6164 21.9268 16.4528 21.9268 16.251V10.3513Z" fill="var(--fill-0, #171717)"/>
<path id="Vector_15" d="M23.7525 10.0019C23.7525 9.80009 23.9161 9.63647 24.118 9.63647C24.3198 9.63647 24.4834 9.80009 24.4834 10.0019V16.6008C24.4834 16.8026 24.3198 16.9662 24.118 16.9662C23.9161 16.9662 23.7525 16.8026 23.7525 16.6008V10.0019Z" fill="var(--fill-0, #171717)"/>
<path id="Vector_16" d="M25.5854 3.37789C25.5854 3.17606 25.749 3.01245 25.9509 3.01245C26.1527 3.01245 26.3163 3.17606 26.3163 3.37789V23.2249C26.3163 23.4268 26.1527 23.5904 25.9509 23.5904C25.749 23.5904 25.5854 23.4268 25.5854 23.2249V3.37789Z" fill="var(--fill-0, #171717)"/>
<path id="Vector_17" d="M27.4112 12.4812C27.4112 12.2793 27.5748 12.1157 27.7766 12.1157C27.9784 12.1157 28.142 12.2793 28.142 12.4812V14.121C28.142 14.3229 27.9784 14.4865 27.7766 14.4865C27.5748 14.4865 27.4112 14.3229 27.4112 14.121V12.4812Z" fill="var(--fill-0, #171717)"/>
<path id="Vector_18" d="M29.2333 13.1374C29.2333 12.9356 29.3969 12.772 29.5988 12.772C29.8006 12.772 29.9642 12.9356 29.9642 13.1374V13.4653C29.9642 13.6671 29.8006 13.8307 29.5988 13.8307C29.3969 13.8307 29.2333 13.6671 29.2333 13.4653V13.1374Z" fill="var(--fill-0, #171717)"/>
<path id="Vector_19" d="M31.0591 4.98848C31.0591 4.78666 31.2227 4.62305 31.4245 4.62305C31.6263 4.62305 31.7899 4.78666 31.7899 4.98849V21.6142C31.7899 21.816 31.6263 21.9796 31.4245 21.9796C31.2227 21.9796 31.0591 21.816 31.0591 21.6142V4.98848Z" fill="var(--fill-0, #171717)"/>
<path id="Vector_20" d="M32.892 12.9074C32.892 12.7056 33.0556 12.542 33.2574 12.542C33.4592 12.542 33.6228 12.7056 33.6228 12.9074V13.6953C33.6228 13.8971 33.4592 14.0607 33.2574 14.0607C33.0556 14.0607 32.892 13.8971 32.892 13.6953V12.9074Z" fill="var(--fill-0, #171717)"/>
<path id="Vector_21" d="M34.7177 10.9953C34.7177 10.7935 34.8813 10.6299 35.0831 10.6299C35.285 10.6299 35.4486 10.7935 35.4486 10.9953V15.6071C35.4486 15.8089 35.285 15.9725 35.0831 15.9725C34.8813 15.9725 34.7177 15.8089 34.7177 15.6071V10.9953Z" fill="var(--fill-0, #171717)"/>
<path id="Vector_22" d="M36.5399 6.54342C36.5399 6.34159 36.7035 6.17798 36.9053 6.17798C37.1071 6.17798 37.2707 6.34159 37.2707 6.54342V20.0593C37.2707 20.2611 37.1071 20.4247 36.9053 20.4247C36.7035 20.4247 36.5399 20.2611 36.5399 20.0593V6.54342Z" fill="var(--fill-0, #EBEBEB)"/>
<path id="Vector_23" d="M38.3728 12.9655C38.3728 12.7637 38.5364 12.6001 38.7382 12.6001C38.94 12.6001 39.1036 12.7637 39.1036 12.9655V13.6367C39.1036 13.8386 38.94 14.0022 38.7382 14.0022C38.5364 14.0022 38.3728 13.8386 38.3728 13.6367V12.9655Z" fill="var(--fill-0, #EBEBEB)"/>
<path id="Vector_24" d="M40.1985 8.34518C40.1985 8.14335 40.3621 7.97974 40.5639 7.97974C40.7658 7.97974 40.9294 8.14335 40.9294 8.34518V18.2575C40.9294 18.4593 40.7658 18.6229 40.5639 18.6229C40.3621 18.6229 40.1985 18.4593 40.1985 18.2575V8.34518Z" fill="var(--fill-0, #EBEBEB)"/>
<path id="Vector_25" d="M42.0242 9.29391C42.0242 9.09208 42.1879 8.92847 42.3897 8.92847C42.5915 8.92847 42.7551 9.09208 42.7551 9.29391V17.3089C42.7551 17.5107 42.5915 17.6743 42.3897 17.6743C42.1879 17.6743 42.0242 17.5107 42.0242 17.3089V9.29391Z" fill="var(--fill-0, #EBEBEB)"/>
<path id="Vector_26" d="M43.8536 7.69771C43.8536 7.49589 44.0172 7.33228 44.219 7.33228C44.4208 7.33228 44.5844 7.49589 44.5844 7.69771V18.9052C44.5844 19.107 44.4208 19.2706 44.219 19.2706C44.0172 19.2706 43.8536 19.107 43.8536 18.9052V7.69771Z" fill="var(--fill-0, #EBEBEB)"/>
<path id="Vector_27" d="M45.6829 6.0212C45.6829 5.81937 45.8465 5.65576 46.0483 5.65576C46.2501 5.65576 46.4138 5.81937 46.4138 6.0212V20.581C46.4138 20.7829 46.2501 20.9465 46.0483 20.9465C45.8465 20.9465 45.6829 20.7829 45.6829 20.581V6.0212Z" fill="var(--fill-0, #EBEBEB)"/>
<path id="Vector_28" d="M47.5015 10.9851C47.5015 10.7832 47.6651 10.6196 47.8669 10.6196C48.0687 10.6196 48.2323 10.7832 48.2323 10.9851V15.6176C48.2323 15.8195 48.0687 15.9831 47.8669 15.9831C47.6651 15.9831 47.5015 15.8195 47.5015 15.6176V10.9851Z" fill="var(--fill-0, #EBEBEB)"/>
<path id="Vector_29" d="M49.3344 13.1096C49.3344 12.9078 49.498 12.7441 49.6998 12.7441C49.9016 12.7441 50.0652 12.9078 50.0652 13.1096V13.4928C50.0652 13.6947 49.9016 13.8583 49.6998 13.8583C49.498 13.8583 49.3344 13.6947 49.3344 13.4928V13.1096Z" fill="var(--fill-0, #EBEBEB)"/>
<path id="Vector_30" d="M51.1601 6.75436C51.1601 6.55253 51.3237 6.38892 51.5255 6.38892C51.7274 6.38892 51.891 6.55253 51.891 6.75436V19.8481C51.891 20.0499 51.7274 20.2135 51.5255 20.2135C51.3237 20.2135 51.1601 20.0499 51.1601 19.8481V6.75436Z" fill="var(--fill-0, #EBEBEB)"/>
<path id="Vector_31" d="M52.993 11.9514C52.993 11.7496 53.1566 11.5859 53.3584 11.5859C53.5603 11.5859 53.7239 11.7496 53.7239 11.9514V14.6513C53.7239 14.8531 53.5603 15.0167 53.3584 15.0167C53.1566 15.0167 52.993 14.8531 52.993 14.6513V11.9514Z" fill="var(--fill-0, #EBEBEB)"/>
<path id="Vector_32" d="M54.8152 13.1355C54.8152 12.9336 54.9788 12.77 55.1806 12.77C55.3824 12.77 55.546 12.9336 55.546 13.1355V13.4669C55.546 13.6687 55.3824 13.8324 55.1806 13.8324C54.9788 13.8324 54.8152 13.6687 54.8152 13.4669V13.1355Z" fill="var(--fill-0, #EBEBEB)"/>
<path id="Vector_33" d="M56.6445 4.28902C56.6445 4.0872 56.8081 3.92358 57.0099 3.92358C57.2118 3.92358 57.3754 4.0872 57.3754 4.28902V22.3137C57.3754 22.5156 57.2118 22.6792 57.0099 22.6792C56.8081 22.6792 56.6445 22.5156 56.6445 22.3137V4.28902Z" fill="var(--fill-0, #EBEBEB)"/>
<path id="Vector_34" d="M58.4631 12.5402C58.4631 12.3384 58.6267 12.1748 58.8285 12.1748C59.0303 12.1748 59.1939 12.3384 59.1939 12.5402V14.0622C59.1939 14.2641 59.0303 14.4277 58.8285 14.4277C58.6267 14.4277 58.4631 14.2641 58.4631 14.0622V12.5402Z" fill="var(--fill-0, #EBEBEB)"/>
<path id="Vector_35" d="M60.2995 12.2685C60.2995 12.0667 60.4632 11.9031 60.665 11.9031C60.8668 11.9031 61.0304 12.0667 61.0304 12.2685V14.3338C61.0304 14.5356 60.8668 14.6992 60.665 14.6992C60.4632 14.6992 60.2995 14.5356 60.2995 14.3338V12.2685Z" fill="var(--fill-0, #EBEBEB)"/>
<path id="Vector_36" d="M62.1253 5.41646C62.1253 5.21464 62.2889 5.05103 62.4907 5.05103C62.6926 5.05103 62.8562 5.21464 62.8562 5.41646V21.1862C62.8562 21.388 62.6926 21.5516 62.4907 21.5516C62.2889 21.5516 62.1253 21.388 62.1253 21.1862V5.41646Z" fill="var(--fill-0, #EBEBEB)"/>
<path id="Vector_37" d="M63.951 12.8989C63.951 12.6971 64.1146 12.5334 64.3165 12.5334C64.5183 12.5334 64.6819 12.6971 64.6819 12.8989V13.7035C64.6819 13.9054 64.5183 14.069 64.3165 14.069C64.1146 14.069 63.951 13.9054 63.951 13.7035V12.8989Z" fill="var(--fill-0, #EBEBEB)"/>
<path id="Vector_38" d="M65.7768 10.6088C65.7768 10.407 65.9404 10.2434 66.1422 10.2434C66.344 10.2434 66.5076 10.407 66.5076 10.6088V15.9938C66.5076 16.1957 66.344 16.3593 66.1422 16.3593C65.9404 16.3593 65.7768 16.1957 65.7768 15.9938V10.6088Z" fill="var(--fill-0, #EBEBEB)"/>
<path id="Vector_39" d="M67.6061 6.69649C67.6061 6.49467 67.7697 6.33105 67.9715 6.33105C68.1734 6.33105 68.337 6.49467 68.337 6.69649V19.9062C68.337 20.108 68.1734 20.2716 67.9715 20.2716C67.7697 20.2716 67.6061 20.108 67.6061 19.9062V6.69649Z" fill="var(--fill-0, #EBEBEB)"/>
<path id="Vector_40" d="M69.4318 13.0634C69.4318 12.8616 69.5954 12.698 69.7973 12.698C69.9991 12.698 70.1627 12.8616 70.1627 13.0634V13.5392C70.1627 13.741 69.9991 13.9047 69.7973 13.9047C69.5954 13.9047 69.4318 13.741 69.4318 13.5392V13.0634Z" fill="var(--fill-0, #EBEBEB)"/>
<path id="Vector_41" d="M71.2647 7.7607C71.2647 7.55888 71.4283 7.39526 71.6302 7.39526C71.832 7.39526 71.9956 7.55888 71.9956 7.7607V18.842C71.9956 19.0439 71.832 19.2075 71.6302 19.2075C71.4283 19.2075 71.2647 19.0439 71.2647 18.842V7.7607Z" fill="var(--fill-0, #EBEBEB)"/>
<path id="Vector_42" d="M73.0869 9.94088C73.0869 9.73905 73.2505 9.57544 73.4523 9.57544C73.6542 9.57544 73.8178 9.73905 73.8178 9.94088V16.6616C73.8178 16.8634 73.6542 17.0271 73.4523 17.0271C73.2505 17.0271 73.0869 16.8634 73.0869 16.6616V9.94088Z" fill="var(--fill-0, #EBEBEB)"/>
<path id="Vector_43" d="M74.9162 13.0962C74.9162 12.8943 75.0798 12.7307 75.2816 12.7307C75.4835 12.7307 75.6471 12.8943 75.6471 13.0962V13.5066C75.6471 13.7084 75.4835 13.872 75.2816 13.872C75.0798 13.872 74.9162 13.7084 74.9162 13.5066V13.0962Z" fill="var(--fill-0, #EBEBEB)"/>
<path id="Vector_44" d="M76.7384 6.09371C76.7384 5.89188 76.902 5.72827 77.1038 5.72827C77.3056 5.72827 77.4692 5.89188 77.4692 6.09371V20.5087C77.4692 20.7105 77.3056 20.8741 77.1038 20.8741C76.902 20.8741 76.7384 20.7105 76.7384 20.5087V6.09371Z" fill="var(--fill-0, #EBEBEB)"/>
<path id="Vector_45" d="M78.5713 11.4607C78.5713 11.2588 78.7349 11.0952 78.9367 11.0952C79.1385 11.0952 79.3021 11.2588 79.3021 11.4607V15.1418C79.3021 15.3436 79.1385 15.5072 78.9367 15.5072C78.7349 15.5072 78.5713 15.3436 78.5713 15.1418V11.4607Z" fill="var(--fill-0, #EBEBEB)"/>
<path id="Vector_46" d="M80.397 13.1176C80.397 12.9158 80.5606 12.7522 80.7624 12.7522C80.9643 12.7522 81.1279 12.9158 81.1279 13.1176V13.4851C81.1279 13.6869 80.9643 13.8505 80.7624 13.8505C80.5606 13.8505 80.397 13.6869 80.397 13.4851V13.1176Z" fill="var(--fill-0, #EBEBEB)"/>
<path id="Vector_47" d="M82.2263 5.15987C82.2263 4.95805 82.3899 4.79443 82.5918 4.79443C82.7936 4.79443 82.9572 4.95805 82.9572 5.15987V21.4427C82.9572 21.6446 82.7936 21.8082 82.5918 21.8082C82.3899 21.8082 82.2263 21.6446 82.2263 21.4427V5.15987Z" fill="var(--fill-0, #EBEBEB)"/>
<path id="Vector_48" d="M84.0556 12.3591C84.0556 12.1573 84.2193 11.9937 84.4211 11.9937C84.6229 11.9937 84.7865 12.1573 84.7865 12.3591V14.2435C84.7865 14.4453 84.6229 14.6089 84.4211 14.6089C84.2193 14.6089 84.0556 14.4453 84.0556 14.2435V12.3591Z" fill="var(--fill-0, #EBEBEB)"/>
<path id="Vector_49" d="M85.8742 13.1359C85.8742 12.9341 86.0378 12.7705 86.2397 12.7705C86.4415 12.7705 86.6051 12.9341 86.6051 13.1359V13.4665C86.6051 13.6684 86.4415 13.832 86.2397 13.832C86.0378 13.832 85.8742 13.6684 85.8742 13.4665V13.1359Z" fill="var(--fill-0, #EBEBEB)"/>
<path id="Vector_50" d="M87.7035 4.33175C87.7035 4.12992 87.8672 3.96631 88.069 3.96631C88.2708 3.96631 88.4344 4.12992 88.4344 4.33175V22.271C88.4344 22.4728 88.2708 22.6364 88.069 22.6364C87.8672 22.6364 87.7035 22.4728 87.7035 22.271V4.33175Z" fill="var(--fill-0, #EBEBEB)"/>
<path id="Vector_51" d="M89.5293 12.7006C89.5293 12.4988 89.6929 12.3352 89.8947 12.3352C90.0966 12.3352 90.2602 12.4988 90.2602 12.7006V13.902C90.2602 14.1038 90.0966 14.2674 89.8947 14.2674C89.6929 14.2674 89.5293 14.1038 89.5293 13.902V12.7006Z" fill="var(--fill-0, #EBEBEB)"/>
<path id="Vector_52" d="M91.3586 12.3872C91.3586 12.1853 91.5222 12.0217 91.724 12.0217C91.9259 12.0217 92.0895 12.1853 92.0895 12.3872V14.2156C92.0895 14.4174 91.9259 14.581 91.724 14.581C91.5222 14.581 91.3586 14.4174 91.3586 14.2156V12.3872Z" fill="var(--fill-0, #EBEBEB)"/>
<path id="Vector_53" d="M93.1879 5.33834C93.1879 5.13651 93.3515 4.9729 93.5534 4.9729C93.7552 4.9729 93.9188 5.13651 93.9188 5.33834V21.2645C93.9188 21.4663 93.7552 21.6299 93.5534 21.6299C93.3515 21.6299 93.1879 21.4663 93.1879 21.2645V5.33834Z" fill="var(--fill-0, #EBEBEB)"/>
<path id="Vector_54" d="M95.0208 12.9445C95.0208 12.7427 95.1844 12.5791 95.3863 12.5791C95.5881 12.5791 95.7517 12.7427 95.7517 12.9445V13.6581C95.7517 13.8599 95.5881 14.0235 95.3863 14.0235C95.1844 14.0235 95.0208 13.8599 95.0208 13.6581V12.9445Z" fill="var(--fill-0, #EBEBEB)"/>
<path id="Vector_55" d="M96.843 9.47115C96.843 9.26933 97.0066 9.10571 97.2084 9.10571C97.4103 9.10571 97.5739 9.26933 97.5739 9.47115V17.1314C97.5739 17.3333 97.4103 17.4969 97.2084 17.4969C97.0066 17.4969 96.843 17.3333 96.843 17.1314V9.47115Z" fill="var(--fill-0, #EBEBEB)"/>
<path id="Vector_56" d="M98.6651 7.99557C98.6651 7.79374 98.8288 7.63013 99.0306 7.63013C99.2324 7.63013 99.396 7.79374 99.396 7.99557V18.6068C99.396 18.8087 99.2324 18.9723 99.0306 18.9723C98.8288 18.9723 98.6651 18.8087 98.6651 18.6068V7.99557Z" fill="var(--fill-0, #EBEBEB)"/>
<path id="Vector_57" d="M100.487 13.0307C100.487 12.8289 100.651 12.6653 100.853 12.6653C101.055 12.6653 101.218 12.8289 101.218 13.0307V13.5716C101.218 13.7735 101.055 13.9371 100.853 13.9371C100.651 13.9371 100.487 13.7735 100.487 13.5716V13.0307Z" fill="var(--fill-0, #EBEBEB)"/>
<path id="Vector_58" d="M102.324 6.97262C102.324 6.77079 102.487 6.60718 102.689 6.60718C102.891 6.60718 103.055 6.77079 103.055 6.97262V19.6297C103.055 19.8316 102.891 19.9952 102.689 19.9952C102.487 19.9952 102.324 19.8316 102.324 19.6297V6.97262Z" fill="var(--fill-0, #EBEBEB)"/>
<path id="Vector_59" d="M104.153 10.1816C104.153 9.97977 104.317 9.81616 104.519 9.81616C104.72 9.81616 104.884 9.97977 104.884 10.1816V16.4211C104.884 16.6229 104.72 16.7865 104.519 16.7865C104.317 16.7865 104.153 16.6229 104.153 16.4211V10.1816Z" fill="var(--fill-0, #EBEBEB)"/>
<path id="Vector_60" d="M105.979 7.91842C105.979 7.71659 106.142 7.55298 106.344 7.55298C106.546 7.55298 106.71 7.71659 106.71 7.91842V18.6841C106.71 18.8859 106.546 19.0496 106.344 19.0496C106.142 19.0496 105.979 18.8859 105.979 18.6841V7.91842Z" fill="var(--fill-0, #EBEBEB)"/>
<path id="Vector_61" d="M107.805 9.33492C107.805 9.1331 107.968 8.96948 108.17 8.96948C108.372 8.96948 108.535 9.1331 108.535 9.33492V17.2674C108.535 17.4693 108.372 17.6329 108.17 17.6329C107.968 17.6329 107.805 17.4693 107.805 17.2674V9.33492Z" fill="var(--fill-0, #EBEBEB)"/>
<path id="Vector_62" d="M109.63 11.9155C109.63 11.7137 109.794 11.55 109.996 11.55C110.198 11.55 110.361 11.7137 110.361 11.9155V14.6868C110.361 14.8886 110.198 15.0522 109.996 15.0522C109.794 15.0522 109.63 14.8886 109.63 14.6868V11.9155Z" fill="var(--fill-0, #EBEBEB)"/>
<path id="Vector_63" d="M111.452 13.1252C111.452 12.9234 111.616 12.7598 111.818 12.7598C112.02 12.7598 112.183 12.9234 112.183 13.1252V13.4775C112.183 13.6793 112.02 13.8429 111.818 13.8429C111.616 13.8429 111.452 13.6793 111.452 13.4775V13.1252Z" fill="var(--fill-0, #EBEBEB)"/>
<path id="Vector_64" d="M113.289 9.05782C113.289 8.856 113.453 8.69238 113.654 8.69238C113.856 8.69238 114.02 8.856 114.02 9.05782V17.5448C114.02 17.7466 113.856 17.9102 113.654 17.9102C113.453 17.9102 113.289 17.7466 113.289 17.5448V9.05782Z" fill="var(--fill-0, #EBEBEB)"/>
<path id="Vector_65" d="M115.122 12.4502C115.122 12.2483 115.285 12.0847 115.487 12.0847C115.689 12.0847 115.853 12.2483 115.853 12.4502V14.1527C115.853 14.3545 115.689 14.5181 115.487 14.5181C115.285 14.5181 115.122 14.3545 115.122 14.1527V12.4502Z" fill="var(--fill-0, #EBEBEB)"/>
<path id="Vector_66" d="M116.944 13.1389C116.944 12.9371 117.108 12.7734 117.309 12.7734C117.511 12.7734 117.675 12.9371 117.675 13.1389V13.4637C117.675 13.6655 117.511 13.8291 117.309 13.8291C117.108 13.8291 116.944 13.6655 116.944 13.4637V13.1389Z" fill="var(--fill-0, #EBEBEB)"/>
<path id="Vector_67" d="M118.766 10.2253C118.766 10.0235 118.93 9.85986 119.132 9.85986C119.333 9.85986 119.497 10.0235 119.497 10.2253V16.3774C119.497 16.5792 119.333 16.7428 119.132 16.7428C118.93 16.7428 118.766 16.5792 118.766 16.3774V10.2253Z" fill="var(--fill-0, #EBEBEB)"/>
<path id="Vector_68" d="M120.588 12.8559C120.588 12.6541 120.752 12.4905 120.954 12.4905C121.156 12.4905 121.319 12.6541 121.319 12.8559V13.7465C121.319 13.9483 121.156 14.1119 120.954 14.1119C120.752 14.1119 120.588 13.9483 120.588 13.7465V12.8559Z" fill="var(--fill-0, #EBEBEB)"/>
<path id="Vector_69" d="M122.421 12.5439C122.421 12.3421 122.585 12.1785 122.787 12.1785C122.989 12.1785 123.152 12.3421 123.152 12.5439V14.0588C123.152 14.2606 122.989 14.4242 122.787 14.4242C122.585 14.4242 122.421 14.2606 122.421 14.0588V12.5439Z" fill="var(--fill-0, #EBEBEB)"/>
<path id="Vector_70" d="M124.251 9.5461C124.251 9.34428 124.414 9.18066 124.616 9.18066C124.818 9.18066 124.981 9.34428 124.981 9.5461V17.0568C124.981 17.2586 124.818 17.4222 124.616 17.4222C124.414 17.4222 124.251 17.2586 124.251 17.0568V9.5461Z" fill="var(--fill-0, #EBEBEB)"/>
<path id="Vector_71" d="M126.08 10.4118C126.08 10.21 126.244 10.0464 126.445 10.0464C126.647 10.0464 126.811 10.21 126.811 10.4118V16.1906C126.811 16.3925 126.647 16.5561 126.445 16.5561C126.244 16.5561 126.08 16.3925 126.08 16.1906V10.4118Z" fill="var(--fill-0, #EBEBEB)"/>
<path id="Vector_72" d="M127.909 7.37643C127.909 7.1746 128.073 7.01099 128.275 7.01099C128.476 7.01099 128.64 7.1746 128.64 7.37643V19.226C128.64 19.4278 128.476 19.5914 128.275 19.5914C128.073 19.5914 127.909 19.4278 127.909 19.226V7.37643Z" fill="var(--fill-0, #EBEBEB)"/>
<path id="Vector_73" d="M129.731 8.53512C129.731 8.33329 129.895 8.16968 130.097 8.16968C130.299 8.16968 130.462 8.33329 130.462 8.53512V18.0675C130.462 18.2693 130.299 18.4329 130.097 18.4329C129.895 18.4329 129.731 18.2693 129.731 18.0675V8.53512Z" fill="var(--fill-0, #EBEBEB)"/>
<path id="Vector_74" d="M131.554 13.0678C131.554 12.866 131.717 12.7024 131.919 12.7024C132.121 12.7024 132.284 12.866 132.284 13.0678V13.5347C132.284 13.7366 132.121 13.9002 131.919 13.9002C131.717 13.9002 131.554 13.7366 131.554 13.5347V13.0678Z" fill="var(--fill-0, #EBEBEB)"/>
<path id="Vector_75" d="M133.379 6.17745C133.379 5.97562 133.543 5.81201 133.745 5.81201C133.947 5.81201 134.11 5.97562 134.11 6.17745V20.4249C134.11 20.6267 133.947 20.7903 133.745 20.7903C133.543 20.7903 133.379 20.6267 133.379 20.4249V6.17745Z" fill="var(--fill-0, #EBEBEB)"/>
<path id="Vector_76" d="M135.212 10.0898C135.212 9.88798 135.376 9.72437 135.578 9.72437C135.779 9.72437 135.943 9.88798 135.943 10.0898V16.5128C135.943 16.7146 135.779 16.8783 135.578 16.8783C135.376 16.8783 135.212 16.7146 135.212 16.5128V10.0898Z" fill="var(--fill-0, #EBEBEB)"/>
<path id="Vector_77" d="M137.045 13.1152C137.045 12.9134 137.209 12.7498 137.411 12.7498C137.612 12.7498 137.776 12.9134 137.776 13.1152V13.4872C137.776 13.689 137.612 13.8526 137.411 13.8526C137.209 13.8526 137.045 13.689 137.045 13.4872V13.1152Z" fill="var(--fill-0, #EBEBEB)"/>
<path id="Vector_78" d="M138.871 5.84542C138.871 5.64359 139.034 5.47998 139.236 5.47998C139.438 5.47998 139.602 5.64359 139.602 5.84542V20.7572C139.602 20.959 139.438 21.1227 139.236 21.1227C139.034 21.1227 138.871 20.959 138.871 20.7572V5.84542Z" fill="var(--fill-0, #EBEBEB)"/>
<path id="Vector_79" d="M140.7 11.5488C140.7 11.347 140.864 11.1833 141.066 11.1833C141.267 11.1833 141.431 11.347 141.431 11.5488V15.0538C141.431 15.2556 141.267 15.4193 141.066 15.4193C140.864 15.4193 140.7 15.2556 140.7 15.0538V11.5488Z" fill="var(--fill-0, #EBEBEB)"/>
<path id="Vector_80" d="M142.515 13.1113C142.515 12.9095 142.679 12.7458 142.881 12.7458C143.082 12.7458 143.246 12.9095 143.246 13.1113V13.491C143.246 13.6928 143.082 13.8564 142.881 13.8564C142.679 13.8564 142.515 13.6928 142.515 13.491V13.1113Z" fill="var(--fill-0, #EBEBEB)"/>
<path id="Vector_81" d="M144.344 5.31856C144.344 5.11674 144.508 4.95312 144.71 4.95312C144.912 4.95312 145.075 5.11674 145.075 5.31856V21.2839C145.075 21.4857 144.912 21.6493 144.71 21.6493C144.508 21.6493 144.344 21.4857 144.344 21.2839V5.31856Z" fill="var(--fill-0, #EBEBEB)"/>
<path id="Vector_82" d="M146.181 9.09273C146.181 8.89091 146.345 8.72729 146.546 8.72729C146.748 8.72729 146.912 8.89091 146.912 9.09273V17.5099C146.912 17.7117 146.748 17.8753 146.546 17.8753C146.345 17.8753 146.181 17.7117 146.181 17.5099V9.09273Z" fill="var(--fill-0, #EBEBEB)"/>
<path id="Vector_83" d="M148.003 10.6198C148.003 10.418 148.167 10.2544 148.369 10.2544C148.57 10.2544 148.734 10.418 148.734 10.6198V15.9828C148.734 16.1847 148.57 16.3483 148.369 16.3483C148.167 16.3483 148.003 16.1847 148.003 15.9828V10.6198Z" fill="var(--fill-0, #EBEBEB)"/>
<path id="Vector_84" d="M149.829 3.50387C149.829 3.30204 149.992 3.13843 150.194 3.13843C150.396 3.13843 150.56 3.30204 150.56 3.50387V23.0988C150.56 23.3006 150.396 23.4642 150.194 23.4642C149.992 23.4642 149.829 23.3006 149.829 23.0988V3.50387Z" fill="var(--fill-0, #EBEBEB)"/>
<path id="Vector_85" d="M151.662 12.8881C151.662 12.6863 151.825 12.5227 152.027 12.5227C152.229 12.5227 152.393 12.6863 152.393 12.8881V13.7146C152.393 13.9164 152.229 14.08 152.027 14.08C151.825 14.08 151.662 13.9164 151.662 13.7146V12.8881Z" fill="var(--fill-0, #EBEBEB)"/>
<path id="Vector_86" d="M153.484 11.2851C153.484 11.0833 153.648 10.9197 153.849 10.9197C154.051 10.9197 154.215 11.0833 154.215 11.2851V15.3171C154.215 15.519 154.051 15.6826 153.849 15.6826C153.648 15.6826 153.484 15.519 153.484 15.3171V11.2851Z" fill="var(--fill-0, #EBEBEB)"/>
<path id="Vector_87" d="M155.306 8.30685C155.306 8.10502 155.47 7.94141 155.671 7.94141C155.873 7.94141 156.037 8.10502 156.037 8.30685V18.2957C156.037 18.4975 155.873 18.6611 155.671 18.6611C155.47 18.6611 155.306 18.4975 155.306 18.2957V8.30685Z" fill="var(--fill-0, #EBEBEB)"/>
<path id="Vector_88" d="M157.143 13.0319C157.143 12.8301 157.306 12.6665 157.508 12.6665C157.71 12.6665 157.873 12.8301 157.873 13.0319V13.5705C157.873 13.7723 157.71 13.9359 157.508 13.9359C157.306 13.9359 157.143 13.7723 157.143 13.5705V13.0319Z" fill="var(--fill-0, #EBEBEB)"/>
<path id="Vector_89" d="M158.972 8.32003C158.972 8.1182 159.135 7.95459 159.337 7.95459C159.539 7.95459 159.703 8.1182 159.703 8.32003V18.2823C159.703 18.4841 159.539 18.6477 159.337 18.6477C159.135 18.6477 158.972 18.4841 158.972 18.2823V8.32003Z" fill="var(--fill-0, #EBEBEB)"/>
<path id="Vector_90" d="M160.79 9.89107C160.79 9.68925 160.954 9.52563 161.156 9.52563C161.358 9.52563 161.521 9.68925 161.521 9.89107V16.7115C161.521 16.9133 161.358 17.0769 161.156 17.0769C160.954 17.0769 160.79 16.9133 160.79 16.7115V9.89107Z" fill="var(--fill-0, #EBEBEB)"/>
<path id="Vector_91" d="M162.62 13.0879C162.62 12.886 162.783 12.7224 162.985 12.7224C163.187 12.7224 163.351 12.886 163.351 13.0879V13.5146C163.351 13.7165 163.187 13.8801 162.985 13.8801C162.783 13.8801 162.62 13.7165 162.62 13.5146V13.0879Z" fill="var(--fill-0, #EBEBEB)"/>
<path id="Vector_92" d="M164.449 6.32418C164.449 6.12235 164.613 5.95874 164.815 5.95874C165.016 5.95874 165.18 6.12235 165.18 6.32418V20.2786C165.18 20.4804 165.016 20.6441 164.815 20.6441C164.613 20.6441 164.449 20.4804 164.449 20.2786V6.32418Z" fill="var(--fill-0, #EBEBEB)"/>
<path id="Vector_93" d="M166.271 11.6208C166.271 11.419 166.435 11.2554 166.637 11.2554C166.839 11.2554 167.002 11.419 167.002 11.6208V14.9818C167.002 15.1837 166.839 15.3473 166.637 15.3473C166.435 15.3473 166.271 15.1837 166.271 14.9818V11.6208Z" fill="var(--fill-0, #EBEBEB)"/>
<path id="Vector_94" d="M168.104 13.1103C168.104 12.9085 168.268 12.7449 168.47 12.7449C168.671 12.7449 168.835 12.9085 168.835 13.1103V13.4921C168.835 13.694 168.671 13.8576 168.47 13.8576C168.268 13.8576 168.104 13.694 168.104 13.4921V13.1103Z" fill="var(--fill-0, #EBEBEB)"/>
<path id="Vector_95" d="M169.93 5.24947C169.93 5.04765 170.093 4.88403 170.295 4.88403C170.497 4.88403 170.661 5.04765 170.661 5.24947V21.3528C170.661 21.5547 170.497 21.7183 170.295 21.7183C170.093 21.7183 169.93 21.5547 169.93 21.3528V5.24947Z" fill="var(--fill-0, #EBEBEB)"/>
<path id="Vector_96" d="M171.759 11.9377C171.759 11.7359 171.923 11.5723 172.125 11.5723C172.326 11.5723 172.49 11.7359 172.49 11.9377V14.6648C172.49 14.8666 172.326 15.0302 172.125 15.0302C171.923 15.0302 171.759 14.8666 171.759 14.6648V11.9377Z" fill="var(--fill-0, #EBEBEB)"/>
<path id="Vector_97" d="M173.581 13.135C173.581 12.9331 173.745 12.7695 173.947 12.7695C174.149 12.7695 174.312 12.9331 174.312 13.135V13.4675C174.312 13.6693 174.149 13.8329 173.947 13.8329C173.745 13.8329 173.581 13.6693 173.581 13.4675V13.135Z" fill="var(--fill-0, #EBEBEB)"/>
<path id="Vector_98" d="M175.407 5.62765C175.407 5.42582 175.571 5.26221 175.773 5.26221C175.974 5.26221 176.138 5.42582 176.138 5.62765V20.9748C176.138 21.1766 175.974 21.3402 175.773 21.3402C175.571 21.3402 175.407 21.1766 175.407 20.9748V5.62765Z" fill="var(--fill-0, #EBEBEB)"/>
<path id="Vector_99" d="M177.233 12.6279C177.233 12.4261 177.396 12.2625 177.598 12.2625C177.8 12.2625 177.964 12.4261 177.964 12.6279V13.9749C177.964 14.1767 177.8 14.3403 177.598 14.3403C177.396 14.3403 177.233 14.1767 177.233 13.9749V12.6279Z" fill="var(--fill-0, #EBEBEB)"/>
<path id="Vector_100" d="M179.073 12.4856C179.073 12.2837 179.237 12.1201 179.438 12.1201C179.64 12.1201 179.804 12.2837 179.804 12.4856V14.1169C179.804 14.3187 179.64 14.4823 179.438 14.4823C179.237 14.4823 179.073 14.3187 179.073 14.1169V12.4856Z" fill="var(--fill-0, #EBEBEB)"/>
<path id="Vector_101" d="M180.895 5.98214C180.895 5.78031 181.059 5.6167 181.26 5.6167C181.462 5.6167 181.626 5.78031 181.626 5.98214V20.6203C181.626 20.8221 181.462 20.9857 181.26 20.9857C181.059 20.9857 180.895 20.8221 180.895 20.6203V5.98214Z" fill="var(--fill-0, #EBEBEB)"/>
<path id="Vector_102" d="M182.721 12.915C182.721 12.7132 182.884 12.5496 183.086 12.5496C183.288 12.5496 183.452 12.7132 183.452 12.915V13.6875C183.452 13.8893 183.288 14.053 183.086 14.053C182.884 14.053 182.721 13.8893 182.721 13.6875V12.915Z" fill="var(--fill-0, #EBEBEB)"/>
<path id="Vector_103" d="M184.543 9.50606C184.543 9.30424 184.707 9.14062 184.908 9.14062C185.11 9.14062 185.274 9.30424 185.274 9.50606V17.0965C185.274 17.2983 185.11 17.4619 184.908 17.4619C184.707 17.4619 184.543 17.2983 184.543 17.0965V9.50606Z" fill="var(--fill-0, #EBEBEB)"/>
<path id="Vector_104" d="M186.369 8.26339C186.369 8.06156 186.532 7.89795 186.734 7.89795C186.936 7.89795 187.1 8.06156 187.1 8.26339V18.3391C187.1 18.541 186.936 18.7046 186.734 18.7046C186.532 18.7046 186.369 18.541 186.369 18.3391V8.26339Z" fill="var(--fill-0, #EBEBEB)"/>
<path id="Vector_105" d="M188.198 7.28658C188.198 7.08476 188.362 6.92114 188.563 6.92114C188.765 6.92114 188.929 7.08476 188.929 7.28658V19.3157C188.929 19.5176 188.765 19.6812 188.563 19.6812C188.362 19.6812 188.198 19.5176 188.198 19.3157V7.28658Z" fill="var(--fill-0, #EBEBEB)"/>
<path id="Vector_106" d="M190.031 5.8735C190.031 5.67167 190.195 5.50806 190.396 5.50806C190.598 5.50806 190.762 5.67167 190.762 5.8735V20.7293C190.762 20.9311 190.598 21.0947 190.396 21.0947C190.195 21.0947 190.031 20.9311 190.031 20.7293V5.8735Z" fill="var(--fill-0, #EBEBEB)"/>
<path id="Vector_107" d="M191.86 9.71651C191.86 9.51469 192.024 9.35107 192.226 9.35107C192.427 9.35107 192.591 9.51469 192.591 9.71651V16.8861C192.591 17.088 192.427 17.2516 192.226 17.2516C192.024 17.2516 191.86 17.088 191.86 16.8861V9.71651Z" fill="var(--fill-0, #EBEBEB)"/>
<path id="Vector_108" d="M193.682 13.091C193.682 12.8892 193.846 12.7256 194.048 12.7256C194.25 12.7256 194.413 12.8892 194.413 13.091V13.5114C194.413 13.7132 194.25 13.8769 194.048 13.8769C193.846 13.8769 193.682 13.7132 193.682 13.5114V13.091Z" fill="var(--fill-0, #EBEBEB)"/>
<path id="Vector_109" d="M195.508 6.24972C195.508 6.04789 195.672 5.88428 195.874 5.88428C196.075 5.88428 196.239 6.04789 196.239 6.24972V20.3531C196.239 20.555 196.075 20.7186 195.874 20.7186C195.672 20.7186 195.508 20.555 195.508 20.3531V6.24972Z" fill="var(--fill-0, #EBEBEB)"/>
<path id="Vector_110" d="M197.334 11.4941C197.334 11.2923 197.497 11.1287 197.699 11.1287C197.901 11.1287 198.065 11.2923 198.065 11.4941V15.1084C198.065 15.3102 197.901 15.4738 197.699 15.4738C197.497 15.4738 197.334 15.3102 197.334 15.1084V11.4941Z" fill="var(--fill-0, #EBEBEB)"/>
<path id="Vector_111" d="M199.163 13.1342C199.163 12.9324 199.327 12.7688 199.529 12.7688C199.73 12.7688 199.894 12.9324 199.894 13.1342V13.4686C199.894 13.6704 199.73 13.834 199.529 13.834C199.327 13.834 199.163 13.6704 199.163 13.4686V13.1342Z" fill="var(--fill-0, #EBEBEB)"/>
<path id="Vector_112" d="M200.996 5.11422C200.996 4.91239 201.16 4.74878 201.362 4.74878C201.563 4.74878 201.727 4.91239 201.727 5.11422V21.4885C201.727 21.6904 201.563 21.854 201.362 21.854C201.16 21.854 200.996 21.6904 200.996 21.4885V5.11422Z" fill="var(--fill-0, #EBEBEB)"/>
<path id="Vector_113" d="M202.822 12.2563C202.822 12.0545 202.985 11.8909 203.187 11.8909C203.389 11.8909 203.553 12.0545 203.553 12.2563V14.3463C203.553 14.5482 203.389 14.7118 203.187 14.7118C202.985 14.7118 202.822 14.5482 202.822 14.3463V12.2563Z" fill="var(--fill-0, #EBEBEB)"/>
<path id="Vector_114" d="M204.64 13.1355C204.64 12.9336 204.804 12.77 205.006 12.77C205.208 12.77 205.371 12.9336 205.371 13.1355V13.4669C205.371 13.6687 205.208 13.8323 205.006 13.8323C204.804 13.8323 204.64 13.6687 204.64 13.4669V13.1355Z" fill="var(--fill-0, #EBEBEB)"/>
<path id="Vector_115" d="M206.473 4.72945C206.473 4.52763 206.637 4.36401 206.839 4.36401C207.041 4.36401 207.204 4.52763 207.204 4.72945V21.873C207.204 22.0748 207.041 22.2384 206.839 22.2384C206.637 22.2384 206.473 22.0748 206.473 21.873V4.72945Z" fill="var(--fill-0, #EBEBEB)"/>
<path id="Vector_116" d="M208.299 7.84347C208.299 7.64164 208.463 7.47803 208.664 7.47803C208.866 7.47803 209.03 7.64164 209.03 7.84347V18.7594C209.03 18.9612 208.866 19.1248 208.664 19.1248C208.463 19.1248 208.299 18.9612 208.299 18.7594V7.84347Z" fill="var(--fill-0, #EBEBEB)"/>
<path id="Vector_117" d="M210.125 10.0918C210.125 9.88993 210.288 9.72632 210.49 9.72632C210.692 9.72632 210.856 9.88993 210.856 10.0918V16.5108C210.856 16.7126 210.692 16.8762 210.49 16.8762C210.288 16.8762 210.125 16.7126 210.125 16.5108V10.0918Z" fill="var(--fill-0, #EBEBEB)"/>
<path id="Vector_118" d="M211.954 9.56881C211.954 9.36698 212.118 9.20337 212.32 9.20337C212.521 9.20337 212.685 9.36698 212.685 9.56881V17.0337C212.685 17.2355 212.521 17.3991 212.32 17.3991C212.118 17.3991 211.954 17.2355 211.954 17.0337V9.56881Z" fill="var(--fill-0, #EBEBEB)"/>
<path id="Vector_119" d="M213.787 12.8244C213.787 12.6226 213.951 12.459 214.152 12.459C214.354 12.459 214.518 12.6226 214.518 12.8244V13.778C214.518 13.9799 214.354 14.1435 214.152 14.1435C213.951 14.1435 213.787 13.9799 213.787 13.778V12.8244Z" fill="var(--fill-0, #EBEBEB)"/>
<path id="Vector_120" d="M215.613 10.3584C215.613 10.1565 215.776 9.99292 215.978 9.99292C216.18 9.99292 216.344 10.1565 216.344 10.3584V16.244C216.344 16.4459 216.18 16.6095 215.978 16.6095C215.776 16.6095 215.613 16.4459 215.613 16.244V10.3584Z" fill="var(--fill-0, #EBEBEB)"/>
<path id="Vector_121" d="M217.431 9.44698C217.431 9.24516 217.595 9.08154 217.797 9.08154C217.999 9.08154 218.162 9.24516 218.162 9.44698V17.1555C218.162 17.3573 217.999 17.5209 217.797 17.5209C217.595 17.5209 217.431 17.3573 217.431 17.1555V9.44698Z" fill="var(--fill-0, #EBEBEB)"/>
<path id="Vector_122" d="M219.261 11.9013C219.261 11.6995 219.424 11.5359 219.626 11.5359C219.828 11.5359 219.992 11.6995 219.992 11.9013V14.7014C219.992 14.9032 219.828 15.0668 219.626 15.0668C219.424 15.0668 219.261 14.9032 219.261 14.7014V11.9013Z" fill="var(--fill-0, #EBEBEB)"/>
<path id="Vector_123" d="M221.094 8.61861C221.094 8.41679 221.257 8.25317 221.459 8.25317C221.661 8.25317 221.824 8.41679 221.824 8.61861V17.9838C221.824 18.1857 221.661 18.3493 221.459 18.3493C221.257 18.3493 221.094 18.1857 221.094 17.9838V8.61861Z" fill="var(--fill-0, #EBEBEB)"/>
<path id="Vector_124" d="M222.919 10.9716C222.919 10.7698 223.083 10.6062 223.285 10.6062C223.487 10.6062 223.65 10.7698 223.65 10.9716V15.6311C223.65 15.8329 223.487 15.9965 223.285 15.9965C223.083 15.9965 222.919 15.8329 222.919 15.6311V10.9716Z" fill="var(--fill-0, #EBEBEB)"/>
<path id="Vector_125" d="M224.749 11.2661C224.749 11.0642 224.912 10.9006 225.114 10.9006C225.316 10.9006 225.479 11.0642 225.479 11.2661V15.3366C225.479 15.5384 225.316 15.7021 225.114 15.7021C224.912 15.7021 224.749 15.5384 224.749 15.3366V11.2661Z" fill="var(--fill-0, #EBEBEB)"/>
<path id="Vector_126" d="M226.574 8.79073C226.574 8.58891 226.738 8.42529 226.94 8.42529C227.142 8.42529 227.305 8.58891 227.305 8.79073V17.8115C227.305 18.0134 227.142 18.177 226.94 18.177C226.738 18.177 226.574 18.0134 226.574 17.8115V8.79073Z" fill="var(--fill-0, #EBEBEB)"/>
<path id="Vector_127" d="M228.4 10.0522C228.4 9.85038 228.564 9.68677 228.766 9.68677C228.967 9.68677 229.131 9.85038 229.131 10.0522V16.5507C229.131 16.7525 228.967 16.9161 228.766 16.9161C228.564 16.9161 228.4 16.7525 228.4 16.5507V10.0522Z" fill="var(--fill-0, #EBEBEB)"/>
<path id="Vector_128" d="M230.222 10.6662C230.222 10.4644 230.386 10.3008 230.588 10.3008C230.79 10.3008 230.953 10.4644 230.953 10.6662V15.9367C230.953 16.1385 230.79 16.3021 230.588 16.3021C230.386 16.3021 230.222 16.1385 230.222 15.9367V10.6662Z" fill="var(--fill-0, #EBEBEB)"/>
<path id="Vector_129" d="M232.055 12.7307C232.055 12.5288 232.219 12.3652 232.421 12.3652C232.622 12.3652 232.786 12.5288 232.786 12.7307V13.8721C232.786 14.0739 232.622 14.2376 232.421 14.2376C232.219 14.2376 232.055 14.0739 232.055 13.8721V12.7307Z" fill="var(--fill-0, #EBEBEB)"/>
<path id="Vector_130" d="M233.884 13.145C233.884 12.9432 234.048 12.7795 234.25 12.7795C234.452 12.7795 234.615 12.9432 234.615 13.145V13.4577C234.615 13.6596 234.452 13.8232 234.25 13.8232C234.048 13.8232 233.884 13.6596 233.884 13.4577V13.145Z" fill="var(--fill-0, #EBEBEB)"/>
<path id="Vector_131" d="M235.714 13.1545C235.714 12.9527 235.877 12.7891 236.079 12.7891C236.281 12.7891 236.445 12.9527 236.445 13.1545V13.4481C236.445 13.65 236.281 13.8136 236.079 13.8136C235.877 13.8136 235.714 13.65 235.714 13.4481V13.1545Z" fill="var(--fill-0, #EBEBEB)"/>
</g>
</svg>
